<mxfile host="app.diagrams.net" modified="2024-02-03T01:25:29.308Z" agent="Mozilla/5.0 (Windows NT 10.0; Win64; x64) AppleWebKit/537.36 (KHTML, like Gecko) Chrome/121.0.0.0 Safari/537.36 Edg/121.0.0.0" etag="Ml_t5d6vNeGOay9XTSSa" version="23.1.1" type="github">
  <diagram name="PÃ¡gina-1" id="ng1RPRI9SQtY_B2i7-3D">
    <mxGraphModel dx="794" dy="430" grid="1" gridSize="10" guides="1" tooltips="1" connect="1" arrows="1" fold="1" page="1" pageScale="1" pageWidth="850" pageHeight="1100" math="0" shadow="0">
      <root>
        <mxCell id="0" />
        <mxCell id="1" parent="0" />
        <mxCell id="-A-a8QJtsRKoOQaAHzKs-1" value="&lt;p style=&quot;text-align: center ; margin: 4px 0px 0px&quot;&gt;&lt;b&gt;Aviones&lt;/b&gt;&lt;/p&gt;&lt;hr&gt;&lt;p style=&quot;margin: 0px ; margin-left: 8px&quot;&gt;&lt;u&gt;NumAvion&lt;/u&gt;&lt;/p&gt;&lt;p style=&quot;margin: 0px ; margin-left: 8px&quot;&gt;Modelo&lt;/p&gt;&lt;p style=&quot;margin: 0px ; margin-left: 8px&quot;&gt;NumeroAsientos&lt;/p&gt;" style="verticalAlign=top;align=left;overflow=fill;fontSize=12;fontFamily=Helvetica;html=1;gradientDirection=south;rounded=1;shadow=1;sketch=0;glass=0;strokeColor=#000000;fillColor=#a5c4e3;gradientColor=#ffffff;" vertex="1" parent="1">
          <mxGeometry x="130" y="110" width="160" height="80" as="geometry" />
        </mxCell>
        <mxCell id="-A-a8QJtsRKoOQaAHzKs-2" value="&lt;p style=&quot;text-align: center ; margin: 4px 0px 0px&quot;&gt;&lt;b&gt;Vuelos&lt;/b&gt;&lt;/p&gt;&lt;hr&gt;&lt;p style=&quot;margin: 0px ; margin-left: 8px&quot;&gt;&lt;u&gt;ClavePrimaria&lt;/u&gt;&lt;br&gt;&lt;/p&gt;&lt;p style=&quot;margin: 0px ; margin-left: 8px&quot;&gt;Atributo&lt;/p&gt;" style="verticalAlign=top;align=left;overflow=fill;fontSize=12;fontFamily=Helvetica;html=1;gradientDirection=south;rounded=1;shadow=1;sketch=0;glass=0;strokeColor=#000000;fillColor=#a5c4e3;gradientColor=#ffffff;" vertex="1" parent="1">
          <mxGeometry x="345" y="110" width="160" height="80" as="geometry" />
        </mxCell>
        <mxCell id="-A-a8QJtsRKoOQaAHzKs-3" value="&lt;p style=&quot;text-align: center ; margin: 4px 0px 0px&quot;&gt;&lt;b&gt;Reservas&lt;/b&gt;&lt;/p&gt;&lt;hr&gt;&lt;p style=&quot;margin: 0px ; margin-left: 8px&quot;&gt;&lt;u&gt;ClavePrimaria&lt;/u&gt;&lt;br&gt;&lt;/p&gt;&lt;p style=&quot;margin: 0px ; margin-left: 8px&quot;&gt;Atributo&lt;/p&gt;" style="verticalAlign=top;align=left;overflow=fill;fontSize=12;fontFamily=Helvetica;html=1;gradientDirection=south;rounded=1;shadow=1;sketch=0;glass=0;strokeColor=#000000;fillColor=#a5c4e3;gradientColor=#ffffff;" vertex="1" parent="1">
          <mxGeometry x="570" y="110" width="160" height="80" as="geometry" />
        </mxCell>
      </root>
    </mxGraphModel>
  </diagram>
</mxfile>
